<svg xmlns="http://www.w3.org/2000/svg" style="display:none">
  <symbol id="settings" viewBox="0 0 24 24"><path d="M12 8.5a3.5 3.5 0 1 0 0 7 3.5 3.5 0 0 0 0-7Z"/><path d="M19.4 13.5a7.8 7.8 0 0 0 0-3l2-1.5-2-3.4-2.4 1a8 8 0 0 0-2.6-1.5L14 2.5h-4l-.4 2.6A8 8 0 0 0 7 6.6l-2.4-1-2 3.4 2 1.5a7.8 7.8 0 0 0 0 3l-2 1.5 2 3.4 2.4-1a8 8 0 0 0 2.6 1.5l.4 2.6h4l.4-2.6a8 8 0 0 0 2.6-1.5l2.4 1 2-3.4-2-1.5Z"/></symbol>
  <symbol id="terminal" viewBox="0 0 24 24"><rect x="3" y="4" width="18" height="16" rx="2"/><path d="m7 9 3 3-3 3M12.5 15H17"/></symbol>
  <symbol id="history" viewBox="0 0 24 24"><path d="M3 12a9 9 0 1 0 3-6.7L3 8"/><path d="M3 3v5h5M12 7v5l3 2"/></symbol>
  <symbol id="health" viewBox="0 0 24 24"><path d="M3 12h4l2-5 4 10 2-5h6"/><path d="M12 21C5 17 3 13 3 9a4 4 0 0 1 7-2.6L12 8l2-1.6A4 4 0 0 1 21 9c0 4-2 8-9 12Z"/></symbol>
  <symbol id="refresh" viewBox="0 0 24 24"><path d="M20 11a8 8 0 0 0-14.5-4.7L3 9"/><path d="M3 4v5h5M4 13a8 8 0 0 0 14.5 4.7L21 15M21 20v-5h-5"/></symbol>
  <symbol id="arrow_back" viewBox="0 0 24 24"><path d="M20 12H4M10 6l-6 6 6 6"/></symbol>
  <symbol id="close" viewBox="0 0 24 24"><path d="M6 6l12 12M18 6 6 18"/></symbol>
  <symbol id="add" viewBox="0 0 24 24"><path d="M12 5v14M5 12h14"/></symbol>
  <symbol id="expand_more" viewBox="0 0 24 24"><path d="m6 9 6 6 6-6"/></symbol>
  <symbol id="arrow_upward" viewBox="0 0 24 24"><path d="M12 19V5M6 11l6-6 6 6"/></symbol>
  <symbol id="stop" viewBox="0 0 24 24"><rect x="6" y="6" width="12" height="12" rx="1"/></symbol>
  <symbol id="restart_alt" viewBox="0 0 24 24"><path d="M20 11a8 8 0 1 0-2.3 5.7M20 4v7h-7"/></symbol>
  <symbol id="play_arrow" viewBox="0 0 24 24"><path d="m8 5 11 7-11 7Z"/></symbol>
  <symbol id="chevron_right" viewBox="0 0 24 24"><path d="m9 5 7 7-7 7"/></symbol>
  <symbol id="check" viewBox="0 0 24 24"><path d="m5 12 4 4L19 6"/></symbol>
  <symbol id="info" viewBox="0 0 24 24"><circle cx="12" cy="12" r="9"/><path d="M12 11v6M12 7h.01"/></symbol>
  <symbol id="warning" viewBox="0 0 24 24"><path d="M12 3 2.5 20h19L12 3Z"/><path d="M12 9v5M12 17h.01"/></symbol>
  <symbol id="download" viewBox="0 0 24 24"><path d="M12 3v12M7 10l5 5 5-5M4 20h16"/></symbol>
  <symbol id="upload" viewBox="0 0 24 24"><path d="M12 17V5M7 10l5-5 5 5M4 20h16"/></symbol>
  <symbol id="delete" viewBox="0 0 24 24"><path d="M4 7h16M9 7V4h6v3M7 7l1 13h8l1-13M10 11v5M14 11v5"/></symbol>
  <symbol id="edit" viewBox="0 0 24 24"><path d="m4 16-.5 4.5L8 20l11-11-4-4L4 16Z"/><path d="m13 7 4 4"/></symbol>
  <symbol id="content_copy" viewBox="0 0 24 24"><rect x="8" y="8" width="11" height="12" rx="1"/><path d="M16 8V4H5v12h3"/></symbol>
  <symbol id="visibility" viewBox="0 0 24 24"><path d="M2 12s3.5-6 10-6 10 6 10 6-3.5 6-10 6S2 12 2 12Z"/><circle cx="12" cy="12" r="3"/></symbol>
  <symbol id="visibility_off" viewBox="0 0 24 24"><path d="m3 3 18 18M10.6 6.2A11.5 11.5 0 0 1 12 6c6.5 0 10 6 10 6a18 18 0 0 1-3.1 3.7M6.2 6.2C3.5 8 2 12 2 12s3.5 6 10 6a10 10 0 0 0 3-.4M9.9 9.9A3 3 0 0 0 14.1 14"/></symbol>
  <symbol id="save" viewBox="0 0 24 24"><path d="M4 3h14l2 2v16H4V3Z"/><path d="M8 3v6h8V3M8 21v-7h8v7"/></symbol>
  <symbol id="build" viewBox="0 0 24 24"><path d="M14.7 6.3a4 4 0 0 0-5-5L12 3.6 9.6 6 7.3 3.7a4 4 0 0 0 5 5L20 16.4 16.4 20l-7.7-7.7a4 4 0 0 0-5-5L6 9.6 3.6 12 1.3 9.7a4 4 0 0 0 5 5L14.7 6.3Z"/></symbol>
  <symbol id="devices" viewBox="0 0 24 24"><rect x="3" y="4" width="14" height="10" rx="1"/><path d="M7 18h6M10 14v4"/><rect x="17" y="8" width="4" height="9" rx="1"/></symbol>
  <symbol id="tv_remote" viewBox="0 0 960 960"><path d="M392-120h176q14 0 23-9t9-23v-241q-20 28-51.5 44.5T480-332q-37 0-68.5-16.5T360-393v241q0 14 9 23t23 9Zm173-275q35-35 35-85t-35-85q-35-35-85-35t-85 35q-35 35-35 85t35 85q35 35 85 35t85-35ZM360-567q20-28 51.5-44.5T480-628q37 0 68.5 16.5T600-567v-241q0-14-9-23t-23-9H392q-14 0-23 9t-9 23v241Zm32 475q-26 0-43-17t-17-43v-656q0-26 17-43t43-17h176q26 0 43 17t17 43v656q0 26-17 43t-43 17H392Zm54.5-354.5Q433-460 433-480t13.5-33.5Q460-527 480-527t33.5 13.5Q527-500 527-480t-13.5 33.5Q500-433 480-433t-33.5-13.5Zm52-295Q506-749 506-760t-7.5-18.5Q491-786 480-786t-18.5 7.5Q454-771 454-760t7.5 18.5Q469-734 480-734t18.5-7.5ZM480-332Zm0-296Z"/></symbol>
</svg>
